<?xml version="1.0" standalone="no"?>
<!DOCTYPE svg PUBLIC "-//W3C//DTD SVG 20010904//EN"
 "http://www.w3.org/TR/2001/REC-SVG-20010904/DTD/svg10.dtd">
<svg version="1.0" xmlns="http://www.w3.org/2000/svg"
 width="980.000000pt" height="980.000000pt" viewBox="0 0 980.000000 980.000000"
 preserveAspectRatio="xMidYMid meet">

<g transform="translate(0.000000,980.000000) scale(0.100000,-0.100000)"
fill="#000000" stroke="none">
<path d="M0 7538 c1 -1832 3 -2259 13 -2240 7 12 17 19 21 15 4 -4 6 -2 4 4
-2 7 8 23 22 35 14 13 19 19 10 13 -11 -7 -12 -6 -4 3 23 27 2394 35 2394 8 0
-4 11 -5 25 -2 15 4 25 2 25 -4 0 -6 5 -8 10 -5 15 10 83 -62 76 -80 -3 -8 -2
-15 2 -15 4 0 7 -20 7 -45 0 -25 -3 -45 -7 -45 -4 0 -5 -6 -2 -13 2 -7 -3 -21
-12 -32 -8 -11 -12 -14 -8 -6 5 10 3 12 -5 7 -7 -5 -10 -11 -7 -14 4 -3 -6
-18 -21 -34 l-27 -28 -518 0 -518 0 0 -240 0 -240 325 0 325 0 0 -95 0 -95
1135 0 1135 0 0 420 0 420 245 0 245 0 0 628 c0 408 -4 622 -10 612 -5 -8 -10
-12 -10 -7 0 4 -9 -2 -20 -13 -12 -12 -25 -18 -30 -15 -6 4 -10 1 -10 -5 0 -6
-4 -8 -10 -5 -6 3 -10 2 -10 -4 0 -13 -55 -42 -64 -34 -3 4 -6 1 -6 -6 0 -7
-4 -9 -10 -6 -5 3 -10 1 -10 -5 0 -6 -4 -8 -10 -5 -5 3 -10 1 -10 -5 0 -6 -4
-8 -10 -5 -5 3 -10 1 -10 -5 0 -6 -4 -8 -10 -5 -5 3 -10 1 -10 -5 0 -7 -7 -9
-16 -6 -10 4 -13 2 -8 -6 5 -8 2 -9 -9 -5 -10 3 -17 2 -17 -3 0 -5 -7 -6 -17
-3 -12 5 -14 3 -8 -7 6 -10 4 -12 -8 -7 -10 4 -17 2 -17 -4 0 -6 -7 -9 -15 -5
-8 3 -15 1 -15 -5 0 -6 -7 -9 -15 -5 -8 3 -15 1 -15 -5 0 -6 -7 -9 -15 -5 -8
3 -15 0 -15 -5 0 -6 -9 -9 -20 -6 -11 3 -20 1 -20 -5 0 -5 -9 -6 -20 -3 -12 4
-20 2 -20 -5 0 -8 -9 -10 -25 -6 -16 4 -25 2 -25 -5 0 -7 -10 -9 -29 -6 -16 3
-32 3 -36 -1 -8 -8 -68 -12 -175 -13 -140 0 -180 2 -185 12 -4 5 -17 6 -30 3
-12 -3 -26 -1 -30 6 -4 6 -15 8 -26 5 -11 -4 -19 -2 -19 5 0 7 -8 9 -20 5 -12
-4 -20 -2 -20 5 0 7 -8 9 -20 5 -11 -4 -20 -2 -20 4 0 6 -7 8 -15 5 -8 -4 -15
-1 -15 5 0 6 -7 8 -15 5 -8 -4 -15 -1 -15 5 0 6 -7 8 -15 5 -8 -4 -15 -1 -15
5 0 6 -6 8 -14 5 -7 -3 -20 2 -29 10 -8 8 -17 12 -21 9 -3 -4 -6 -1 -6 6 0 7
-4 10 -9 7 -13 -8 -42 4 -35 15 3 5 -3 6 -12 2 -12 -4 -15 -3 -10 5 5 8 1 10
-10 5 -12 -4 -15 -3 -10 5 4 8 2 10 -8 6 -8 -3 -23 3 -34 14 -11 11 -23 18
-26 15 -3 -4 -6 0 -6 7 0 7 -3 10 -7 7 -3 -4 -12 1 -20 11 -10 11 -12 12 -8 2
4 -8 -1 -6 -9 4 -9 11 -16 16 -16 10 0 -5 -9 2 -20 16 -15 19 -20 22 -24 10
-10 -29 -18 -126 -17 -202 0 -49 -3 -78 -10 -78 -6 0 -8 -9 -4 -20 4 -12 2
-20 -5 -20 -6 0 -8 -5 -4 -11 6 -11 -55 -75 -68 -71 -5 1 -8 -3 -8 -9 0 -6 -7
-9 -15 -5 -8 3 -15 1 -15 -4 0 -6 -16 -10 -35 -10 -19 0 -35 5 -35 11 0 6 -7
9 -15 5 -8 -3 -15 -1 -15 5 0 6 -5 7 -12 3 -6 -4 -22 5 -36 22 -13 16 -21 22
-17 14 3 -8 -1 -6 -9 4 -9 11 -14 28 -10 38 3 11 0 18 -7 18 -9 0 -11 34 -6
141 5 137 5 141 -16 148 -14 5 -25 4 -29 -3 -4 -6 -8 -7 -8 -2 0 6 -6 2 -13
-9 -9 -11 -19 -15 -27 -10 -8 5 -11 4 -6 -3 6 -10 -30 -28 -46 -24 -5 1 -8 -3
-8 -9 0 -5 -4 -7 -10 -4 -5 3 -10 1 -10 -5 0 -6 -4 -8 -10 -5 -5 3 -10 1 -10
-5 0 -6 -5 -8 -10 -5 -5 3 -10 1 -10 -5 0 -6 -4 -8 -10 -5 -5 3 -10 1 -10 -5
0 -6 -5 -8 -10 -5 -5 3 -10 1 -10 -5 0 -6 -4 -8 -10 -5 -5 3 -10 1 -10 -5 0
-6 -4 -8 -10 -5 -5 3 -10 1 -10 -5 0 -7 -7 -9 -16 -6 -10 4 -13 2 -8 -6 5 -8
2 -9 -9 -5 -10 3 -17 2 -17 -4 0 -6 -4 -7 -10 -4 -5 3 -10 1 -10 -5 0 -7 -7
-10 -15 -6 -8 3 -15 1 -15 -5 0 -6 -7 -9 -15 -5 -8 3 -15 1 -15 -5 0 -6 -7 -9
-15 -5 -8 3 -15 1 -15 -5 0 -6 -9 -8 -20 -4 -12 4 -20 2 -20 -5 0 -7 -8 -10
-20 -7 -11 3 -20 1 -20 -5 0 -6 -11 -8 -24 -4 -14 3 -28 1 -31 -5 -4 -6 -19
-7 -36 -4 -18 4 -29 2 -29 -4 0 -6 -21 -11 -47 -11 -252 -1 -293 0 -293 12 0
5 -12 7 -29 3 -17 -4 -32 -2 -36 5 -4 6 -15 8 -25 5 -10 -3 -21 -2 -24 4 -3 5
-15 7 -26 4 -11 -3 -20 -1 -20 5 0 6 -9 8 -20 5 -11 -3 -20 0 -20 6 0 5 -7 8
-15 5 -8 -4 -15 -1 -15 5 0 6 -7 8 -15 5 -8 -4 -15 -1 -15 5 0 6 -7 8 -15 5
-8 -4 -15 -1 -15 5 0 6 -7 8 -15 5 -8 -4 -15 -1 -15 6 0 6 -5 8 -10 5 -5 -3
-10 -2 -10 4 0 6 -7 8 -15 5 -8 -4 -15 -1 -15 6 0 6 -5 8 -10 5 -5 -3 -10 -1
-10 5 0 6 -5 8 -10 5 -5 -3 -10 -1 -10 5 0 6 -4 8 -10 5 -5 -3 -10 -1 -10 5 0
6 -4 8 -10 5 -5 -3 -10 -1 -10 5 0 6 -4 8 -10 5 -5 -3 -10 -1 -10 5 0 6 -4 9
-10 5 -5 -3 -18 3 -30 15 -11 11 -20 17 -20 13 0 -4 -7 2 -16 13 -8 10 -13 12
-9 4 4 -10 2 -9 -8 2 -8 10 -17 15 -20 11 -4 -3 -7 -1 -7 6 0 7 -4 9 -10 6 -5
-3 -10 -1 -10 5 0 6 -4 8 -10 5 -5 -3 -10 -1 -10 6 0 7 -3 10 -6 6 -5 -5 -12
-116 -17 -274 -1 -24 -5 -43 -9 -43 -4 0 -5 -6 -2 -13 2 -7 -12 -28 -32 -47
-20 -19 -34 -28 -30 -20 5 9 2 8 -7 -2 -8 -10 -17 -15 -20 -11 -4 3 -7 2 -7
-3 0 -6 -22 -10 -50 -10 -27 0 -50 4 -50 9 0 4 -4 5 -10 2 -5 -3 -10 -1 -10 6
0 7 -3 9 -7 6 -9 -9 -64 44 -57 55 3 4 1 8 -5 8 -6 0 -8 7 -5 15 4 8 1 15 -5
15 -6 0 -10 22 -11 53 0 266 0 657 0 721 1 44 5 85 11 92 6 7 7 28 3 48 -4 25
-3 36 6 36 8 0 9 10 5 30 -4 19 -3 30 4 30 7 0 9 10 5 25 -4 16 -2 25 6 25 7
0 9 8 5 20 -4 12 -2 20 5 20 7 0 9 8 5 20 -3 11 -2 20 3 20 6 0 8 9 5 20 -3
11 0 20 6 20 5 0 8 7 5 15 -4 8 -1 15 5 15 6 0 8 7 5 15 -4 8 -1 15 5 15 6 0
8 7 5 15 -4 8 -1 15 5 15 6 0 8 7 5 15 -4 8 -1 15 5 15 6 0 8 7 4 17 -4 11 -3
14 5 9 8 -5 10 -2 6 8 -3 9 -1 16 6 16 6 0 8 5 5 10 -3 6 -2 10 4 10 6 0 8 7
5 15 -4 8 -1 15 6 15 6 0 8 5 5 10 -3 6 -1 10 5 10 6 0 8 5 5 10 -3 6 -1 10 5
10 6 0 8 5 5 10 -3 6 -1 10 5 10 6 0 9 4 6 9 -8 13 4 42 15 35 5 -3 6 2 3 10
-3 8 3 23 14 34 11 11 18 23 15 26 -4 3 -1 6 6 6 7 0 10 4 6 10 -3 5 2 18 12
28 10 10 19 25 21 33 2 8 13 22 25 32 12 10 15 16 7 12 -8 -4 -4 3 10 15 14
12 18 19 10 15 -8 -4 -4 3 10 15 14 12 18 18 10 14 -13 -7 -13 -5 -1 12 8 10
26 30 40 43 14 13 19 20 11 16 -8 -4 -1 6 15 22 17 15 24 24 15 19 -8 -4 3 9
25 29 22 21 31 32 20 25 -11 -7 7 13 40 44 33 30 56 56 50 56 -5 0 22 31 59
69 38 39 73 69 77 68 5 -1 34 25 65 58 31 33 50 51 43 40 -8 -11 10 4 38 33
29 29 57 51 62 47 5 -3 13 0 17 6 5 8 2 10 -7 5 -8 -4 -5 -1 5 8 10 8 22 13
27 11 4 -3 11 0 15 6 5 8 2 10 -7 5 -8 -4 -5 -1 5 8 10 8 22 13 27 11 4 -3 11
0 15 6 4 8 3 9 -4 5 -24 -15 -11 2 14 19 18 12 24 13 19 4 -3 -8 1 -5 10 6 9
11 21 19 26 17 5 -1 9 2 9 7 0 5 14 20 32 32 17 13 28 16 23 8 -4 -7 4 -1 18
14 15 15 31 26 36 23 5 -3 12 1 15 10 4 9 9 14 13 11 3 -4 12 1 20 11 10 11
12 12 8 2 -4 -8 2 -5 12 7 10 12 24 23 32 25 8 2 23 11 33 21 10 10 23 15 28
12 6 -4 10 -1 10 6 0 7 3 9 7 6 3 -4 12 1 20 11 10 11 12 12 8 2 -4 -10 -2 -9
8 2 8 10 17 15 20 11 4 -3 7 -1 7 6 0 7 4 9 10 6 6 -3 10 -1 10 5 0 6 4 9 9 6
5 -3 12 1 15 10 4 9 13 14 22 10 8 -3 12 -2 9 4 -6 9 8 14 28 11 4 0 7 4 7 10
0 5 5 7 10 4 6 -3 10 -1 10 5 0 6 5 8 10 5 6 -3 10 -1 10 5 0 6 5 8 10 5 6 -3
10 -1 10 5 0 6 5 8 10 5 6 -3 10 -1 10 5 0 6 4 8 10 5 5 -3 10 -1 10 5 0 6 5
8 10 5 6 -3 10 -1 10 6 0 7 3 10 6 6 4 -3 13 1 21 9 9 8 22 13 29 10 8 -3 14
-1 14 5 0 6 4 7 10 4 5 -3 10 -1 10 6 0 7 3 10 6 6 4 -3 13 1 21 9 9 8 22 13
30 10 9 -4 11 -2 7 6 -5 8 -2 9 9 5 10 -3 17 -2 17 4 0 6 4 7 10 4 5 -3 10 -1
10 5 0 7 7 10 15 6 8 -3 15 -1 15 5 0 6 5 7 10 4 6 -3 10 -1 10 5 0 7 7 10 15
6 8 -3 15 -1 15 5 0 6 4 7 10 4 6 -3 10 -1 10 5 0 7 7 10 15 6 8 -3 15 -1 15
4 0 5 7 6 17 3 12 -5 14 -3 8 7 -6 10 -4 12 8 7 10 -4 17 -2 17 4 0 6 7 9 15
5 8 -3 15 -1 15 5 0 6 7 9 15 5 8 -3 15 -1 15 5 0 6 7 9 15 5 8 -3 15 -1 15 4
0 5 7 7 15 4 8 -4 15 -1 15 5 0 6 7 8 15 5 8 -4 15 -1 15 6 0 7 7 10 15 6 8
-3 15 -1 15 5 0 6 7 9 15 5 8 -3 15 -1 15 5 0 6 7 9 15 5 8 -3 15 -1 15 5 0 6
7 9 15 5 8 -3 15 -1 15 5 0 6 9 8 20 4 12 -4 20 -2 20 5 0 7 7 10 15 6 8 -3
15 -1 15 5 0 6 9 8 20 4 12 -4 20 -2 20 5 0 7 7 10 15 6 8 -3 15 -1 15 5 0 6
9 8 20 4 12 -4 20 -2 20 5 0 7 8 9 20 5 12 -4 20 -2 20 5 0 7 8 9 20 5 12 -4
20 -2 20 5 0 7 8 9 20 5 12 -4 20 -2 20 5 0 7 8 9 20 5 12 -4 20 -2 20 5 0 8
9 10 25 6 15 -4 25 -2 25 4 0 7 8 9 20 5 12 -4 20 -2 20 5 0 8 9 10 25 6 16
-4 25 -2 25 5 0 7 9 9 25 5 16 -4 25 -2 25 5 0 7 9 9 25 5 16 -4 25 -2 25 5 0
7 9 9 24 5 14 -3 28 -2 31 4 3 6 17 7 31 4 16 -4 24 -2 24 6 0 9 10 11 30 7
19 -4 30 -2 30 5 0 6 11 8 30 5 16 -4 32 -2 36 4 3 6 19 7 35 4 19 -4 29 -3
29 5 0 8 11 10 34 6 21 -4 37 -2 41 4 4 7 19 9 35 5 17 -4 31 -2 35 5 4 7 21
9 45 5 24 -4 41 -2 45 5 4 7 21 9 45 5 24 -4 41 -2 45 5 5 7 21 9 46 5 26 -4
45 -3 54 5 10 8 30 10 59 6 27 -4 47 -3 51 4 3 5 32 10 63 10 31 -1 73 1 92 2
l35 3 -3 63 c-2 37 1 68 8 76 6 8 8 26 4 40 -4 16 -2 26 5 26 6 0 8 6 5 14 -7
19 55 88 73 82 9 -4 11 -1 7 6 -5 8 -2 9 9 5 9 -3 19 -2 22 3 4 7 -911 10
-2509 10 l-2516 0 0 -2262z m1720 819 c0 -2 -10 -12 -22 -23 l-23 -19 19 23
c18 21 26 27 26 19z m-180 -180 c0 -2 -10 -12 -22 -23 l-23 -19 19 23 c18 21
26 27 26 19z"/>
<path d="M5090 9789 c0 -6 7 -9 15 -5 8 3 15 1 15 -4 0 -5 6 -7 14 -4 17 6 79
-64 72 -82 -3 -8 -1 -14 5 -14 5 0 7 -11 3 -25 -4 -16 -2 -25 6 -25 9 0 11
-18 8 -65 -2 -36 0 -65 5 -65 5 0 7 -7 4 -14 -4 -10 -1 -13 7 -10 8 3 17 0 21
-6 5 -7 29 -9 75 -4 47 4 70 3 75 -6 5 -8 26 -9 70 -5 43 5 65 3 70 -4 4 -8
22 -10 51 -5 28 4 49 2 58 -5 9 -8 28 -10 49 -6 21 4 37 3 41 -4 5 -7 22 -9
47 -5 28 5 39 3 39 -6 0 -9 10 -10 34 -6 21 4 37 2 41 -4 4 -7 19 -9 35 -5 15
3 31 2 34 -4 4 -6 20 -8 36 -4 19 3 30 1 30 -5 0 -7 11 -9 30 -5 19 3 30 1 30
-6 0 -7 9 -9 24 -5 13 3 27 1 31 -5 3 -6 17 -8 31 -5 15 4 24 2 24 -5 0 -7 9
-9 25 -5 16 4 25 2 25 -5 0 -7 9 -9 25 -5 16 4 25 2 25 -6 0 -7 8 -9 19 -5 11
3 22 1 26 -5 4 -6 15 -8 26 -5 11 4 19 2 19 -5 0 -7 8 -9 19 -5 11 3 22 2 25
-4 3 -5 15 -7 26 -4 11 3 20 1 20 -5 0 -6 9 -8 20 -5 11 3 20 1 20 -5 0 -6 9
-8 20 -5 11 3 20 0 20 -6 0 -5 7 -8 15 -5 8 4 15 1 15 -6 0 -7 8 -9 20 -5 12
4 20 2 20 -5 0 -7 8 -9 20 -5 11 4 20 2 20 -4 0 -6 7 -8 15 -5 8 4 15 1 15 -6
0 -7 8 -9 20 -5 11 4 20 2 20 -4 0 -6 7 -8 15 -5 8 4 15 1 15 -6 0 -7 7 -10
15 -6 8 3 15 1 15 -5 0 -6 9 -8 20 -4 11 4 20 2 20 -4 0 -6 7 -8 15 -5 8 4 15
1 15 -5 0 -6 7 -8 15 -5 8 4 15 1 15 -5 0 -6 7 -8 15 -5 8 4 15 1 15 -5 0 -6
7 -8 15 -5 8 4 15 1 15 -5 0 -6 7 -8 15 -5 8 4 15 1 15 -5 0 -6 7 -8 15 -5 8
4 15 1 15 -6 0 -6 5 -8 10 -5 6 3 10 2 10 -4 0 -6 7 -8 15 -5 8 4 15 1 15 -5
0 -6 7 -8 15 -5 8 4 15 1 15 -6 0 -6 5 -8 10 -5 6 3 10 2 10 -4 0 -6 7 -8 15
-5 8 4 15 1 15 -5 0 -6 7 -8 15 -5 8 4 15 1 15 -6 0 -6 5 -8 10 -5 6 3 10 2
10 -4 0 -6 7 -7 17 -4 11 4 14 3 9 -5 -5 -8 -2 -10 8 -6 9 3 16 1 16 -6 0 -6
5 -8 10 -5 6 3 10 2 10 -4 0 -6 7 -8 15 -5 8 4 15 1 15 -6 0 -6 5 -8 10 -5 6
3 10 1 10 -5 0 -6 5 -8 10 -5 6 3 10 2 10 -4 0 -6 7 -7 17 -4 11 4 14 3 9 -5
-5 -8 -2 -10 8 -6 9 3 16 1 16 -6 0 -6 5 -8 10 -5 6 3 10 1 10 -5 0 -6 5 -8
10 -5 6 3 10 1 10 -5 0 -6 4 -9 9 -6 13 8 42 -4 35 -15 -3 -5 3 -6 12 -2 12 4
15 3 10 -5 -5 -8 -1 -10 10 -5 12 4 15 3 10 -5 -5 -8 -1 -10 10 -5 12 4 15 3
10 -5 -5 -8 -1 -10 10 -5 12 4 15 3 10 -5 -5 -8 -1 -10 10 -5 12 4 15 3 10 -5
-4 -8 -2 -10 8 -6 8 3 23 -3 34 -14 11 -11 23 -18 26 -14 3 3 6 0 6 -7 0 -7 5
-9 10 -6 6 3 10 1 10 -5 0 -6 5 -8 10 -5 6 3 10 1 10 -5 0 -6 4 -9 10 -5 5 3
18 -3 29 -14 11 -11 22 -17 25 -13 3 3 6 0 6 -7 0 -7 4 -10 10 -6 5 3 18 -3
30 -15 11 -11 20 -17 20 -13 0 4 7 -2 16 -13 8 -10 13 -12 9 -4 -4 10 -2 9 8
-2 8 -10 17 -15 20 -11 4 3 9 -2 13 -11 3 -9 10 -13 15 -10 5 3 21 -8 36 -23
14 -15 23 -21 19 -13 -4 8 2 4 14 -10 12 -14 19 -18 15 -10 -4 8 3 4 15 -10
12 -14 19 -18 15 -10 -4 8 3 4 15 -10 12 -14 18 -18 14 -10 -7 13 -5 13 12 1
10 -8 30 -26 43 -40 13 -14 20 -19 16 -11 -3 8 6 2 20 -15 15 -16 24 -23 20
-15 -3 8 6 2 20 -15 15 -16 24 -23 20 -15 -4 8 6 1 22 -15 15 -17 24 -24 19
-15 -4 8 9 -3 29 -25 21 -22 32 -31 25 -20 -7 11 9 -2 36 -30 26 -27 41 -41
34 -30 -8 11 39 -34 105 -100 66 -66 119 -123 118 -126 -1 -4 8 -15 20 -25
l22 -19 -19 23 c-11 12 -17 22 -14 22 3 0 23 -21 44 -47 21 -27 30 -41 19 -33
-11 8 0 -4 23 -27 24 -23 41 -46 38 -52 -4 -5 -1 -13 5 -17 8 -4 9 -3 5 4 -15
24 2 11 19 -14 12 -18 13 -24 4 -19 -8 4 -3 -3 11 -15 14 -12 18 -19 10 -15
-8 4 -4 -3 10 -15 14 -12 18 -19 10 -15 -8 4 -5 -2 7 -12 12 -10 23 -25 25
-33 2 -8 10 -21 18 -28 13 -12 13 -13 0 -7 -8 4 -6 -1 4 -9 11 -9 17 -16 13
-16 -4 0 2 -9 13 -20 12 -12 18 -25 15 -30 -4 -6 -1 -10 5 -10 6 0 8 -4 5 -10
-3 -5 -1 -10 5 -10 6 0 8 -4 5 -10 -3 -5 -1 -10 5 -10 6 0 8 -4 5 -10 -3 -5
-1 -10 5 -10 6 0 8 -4 5 -10 -3 -5 -1 -10 5 -10 6 0 8 -4 5 -10 -3 -5 -1 -10
5 -10 6 0 8 -4 5 -10 -3 -5 -1 -10 5 -10 6 0 8 -4 5 -10 -3 -5 -1 -10 5 -10 6
0 8 -4 5 -10 -3 -5 -1 -10 5 -10 7 0 9 -7 6 -16 -3 -8 -2 -13 3 -10 11 7 23
-22 15 -35 -3 -5 0 -9 6 -9 6 0 8 -4 5 -10 -3 -5 -1 -10 5 -10 7 0 10 -7 6
-15 -3 -8 -1 -15 5 -15 6 0 7 -4 4 -10 -3 -5 -1 -10 5 -10 7 0 10 -7 6 -15 -3
-8 -1 -15 5 -15 6 0 9 -7 5 -15 -3 -8 -1 -15 5 -15 6 0 9 -7 5 -15 -3 -8 -1
-15 5 -15 6 0 8 -9 4 -20 -4 -12 -2 -20 5 -20 7 0 9 -8 5 -20 -4 -12 -2 -20 5
-20 8 0 9 -10 5 -30 -4 -20 -3 -30 5 -30 9 0 10 -11 6 -35 -5 -24 -3 -35 5
-35 8 0 10 -15 5 -50 -4 -28 -3 -56 1 -63 4 -7 9 -66 10 -132 1 -66 5 -245 8
-399 3 -153 3 -286 -1 -295 -4 -9 -6 -22 -5 -28 1 -7 -3 -13 -9 -13 -5 0 -9
-4 -7 -9 1 -4 -7 -17 -18 -27 -12 -11 -16 -17 -10 -14 6 3 2 -3 -8 -12 -11
-10 -23 -15 -28 -12 -5 3 -9 1 -9 -5 0 -6 -7 -8 -15 -5 -8 4 -15 1 -15 -5 0
-6 -17 -11 -40 -11 -22 0 -40 4 -40 10 0 5 -6 7 -14 4 -19 -7 -99 65 -92 83 3
7 2 13 -2 13 -4 0 -8 42 -8 92 -3 176 -7 214 -26 214 -9 0 -14 -4 -12 -8 5 -7
-10 -12 -28 -9 -5 0 -8 -4 -8 -11 0 -6 -3 -9 -6 -5 -3 3 -14 -3 -25 -14 -11
-11 -24 -17 -29 -14 -6 4 -10 1 -10 -5 0 -6 -4 -8 -10 -5 -5 3 -10 1 -10 -5 0
-6 -4 -8 -10 -5 -5 3 -10 1 -10 -5 0 -6 -4 -8 -10 -5 -5 3 -10 1 -10 -5 0 -6
-4 -8 -10 -5 -5 3 -10 1 -10 -5 0 -6 -4 -8 -10 -5 -5 3 -10 1 -10 -5 0 -6 -4
-8 -10 -5 -5 3 -10 1 -10 -5 0 -6 -4 -8 -10 -5 -5 3 -10 1 -10 -5 0 -7 -7 -10
-15 -6 -8 3 -15 1 -15 -5 0 -6 -4 -7 -10 -4 -5 3 -10 1 -10 -5 0 -7 -7 -10
-15 -6 -8 3 -15 1 -15 -5 0 -6 -7 -9 -15 -5 -8 3 -15 1 -15 -5 0 -6 -7 -9 -15
-5 -8 3 -15 1 -15 -5 0 -6 -7 -9 -15 -5 -8 3 -15 0 -15 -5 0 -6 -9 -9 -20 -6
-11 3 -20 1 -20 -5 0 -6 -11 -7 -25 -4 -16 4 -25 2 -25 -5 0 -7 -9 -9 -25 -5
-16 4 -25 2 -25 -5 0 -7 -12 -9 -35 -5 -19 4 -35 3 -35 -2 0 -10 -321 -10
-337 1 -7 4 -23 5 -36 1 -14 -3 -28 -1 -32 6 -4 6 -15 8 -25 5 -10 -3 -21 -2
-24 4 -3 5 -15 7 -26 4 -11 -3 -20 -1 -20 5 0 6 -9 8 -20 5 -11 -3 -20 0 -20
6 0 5 -7 8 -15 5 -8 -4 -15 -1 -15 5 0 6 -7 8 -15 5 -8 -4 -15 -1 -15 5 0 6
-7 8 -15 5 -8 -4 -15 -1 -15 6 0 6 -4 8 -10 5 -5 -3 -10 -2 -10 4 0 6 -7 8
-15 5 -8 -4 -15 -1 -15 6 0 6 -4 8 -10 5 -5 -3 -10 -1 -10 5 0 6 -4 8 -10 5
-5 -3 -10 -2 -10 4 0 6 -6 8 -14 5 -8 -3 -23 3 -34 14 -11 11 -23 18 -26 14
-3 -3 -6 0 -6 7 0 7 -4 9 -10 6 -5 -3 -22 7 -37 22 -14 15 -23 21 -19 13 4 -8
-2 -4 -14 10 -12 14 -19 18 -15 10 4 -8 -1 -6 -10 5 -9 11 -23 19 -31 17 -8
-2 -14 2 -14 8 0 7 -5 6 -13 -2 -8 -7 -12 -20 -9 -30 2 -10 -1 -18 -8 -18 -10
0 -11 -28 -6 -130 5 -95 4 -130 -4 -130 -6 0 -10 -5 -8 -11 6 -17 -72 -91 -88
-85 -7 3 -16 1 -19 -4 -8 -13 -75 -13 -75 0 0 5 -7 7 -15 4 -8 -4 -15 -1 -15
6 0 6 -4 9 -8 6 -13 -8 -75 60 -68 73 4 6 2 11 -4 11 -6 0 -8 10 -4 25 4 15 2
25 -5 25 -7 0 -11 28 -11 83 1 112 -4 177 -12 177 -5 0 -8 -5 -8 -11 0 -5 -4
-7 -10 -4 -5 3 -10 1 -10 -5 0 -6 -4 -8 -10 -5 -5 3 -10 1 -10 -5 0 -6 -4 -8
-10 -5 -5 3 -10 1 -10 -5 0 -6 -4 -8 -10 -5 -5 3 -10 1 -10 -6 0 -7 -3 -10 -6
-7 -3 4 -15 -3 -26 -14 -11 -11 -26 -17 -34 -14 -8 3 -13 2 -10 -3 7 -11 -22
-23 -35 -15 -5 3 -9 0 -9 -6 0 -6 -4 -8 -10 -5 -5 3 -10 1 -10 -5 0 -6 -4 -8
-10 -5 -5 3 -10 1 -10 -5 0 -6 -4 -8 -10 -5 -5 3 -10 1 -10 -5 0 -7 -7 -9 -16
-6 -10 4 -13 2 -8 -6 5 -8 2 -9 -9 -5 -10 3 -17 2 -17 -4 0 -6 -4 -7 -10 -4
-5 3 -10 1 -10 -5 0 -7 -7 -10 -15 -6 -8 3 -15 1 -15 -5 0 -6 -4 -7 -10 -4 -5
3 -10 1 -10 -5 0 -7 -7 -10 -15 -6 -8 3 -15 1 -15 -5 0 -6 -7 -9 -15 -5 -8 3
-15 1 -15 -5 0 -6 -7 -9 -15 -5 -8 3 -15 1 -15 -5 0 -7 -10 -9 -24 -5 -14 3
-28 1 -31 -5 -4 -6 -18 -8 -30 -5 -13 3 -27 1 -30 -5 -4 -6 -22 -8 -45 -4 -23
4 -41 2 -45 -4 -4 -7 -48 -11 -115 -11 -67 0 -111 4 -115 11 -4 6 -22 8 -46 4
-27 -5 -39 -3 -39 5 0 8 -10 9 -30 5 -20 -4 -30 -3 -30 5 0 7 -8 9 -20 5 -12
-4 -20 -2 -20 5 0 7 -8 9 -20 5 -12 -4 -20 -2 -20 5 0 7 -8 9 -20 5 -11 -4
-20 -2 -20 4 0 6 -7 8 -15 5 -8 -4 -15 -1 -15 5 0 6 -7 8 -15 5 -8 -4 -15 -1
-15 5 0 6 -7 8 -15 5 -8 -4 -15 -1 -15 6 0 6 -4 8 -10 5 -5 -3 -10 -2 -10 4 0
6 -7 8 -15 5 -8 -4 -15 -1 -15 6 0 6 -4 8 -10 5 -5 -3 -10 -1 -10 5 0 6 -4 8
-10 5 -5 -3 -10 -1 -10 5 0 6 -4 8 -10 5 -12 -7 -70 22 -70 36 0 6 -4 7 -10 4
-5 -3 -10 -1 -10 5 0 6 -4 9 -10 5 -5 -3 -18 3 -30 15 -11 11 -20 17 -20 13 0
-4 -7 2 -16 13 -8 10 -12 13 -9 6 6 -11 3 -12 -13 -3 -11 6 -22 15 -24 21 -2
7 -9 6 -19 -2 -15 -12 -16 -71 -11 -615 l5 -603 249 0 248 0 -2 -420 -3 -421
75 3 75 3 0 503 0 503 160 -3 160 -3 -3 33 c-2 18 1 39 8 47 8 9 9 28 5 54 -4
22 -2 42 3 45 6 3 8 16 4 28 -4 16 -2 19 8 13 9 -5 11 -4 6 3 -9 14 60 85 74
77 6 -3 10 -3 10 2 0 4 23 8 50 8 28 0 50 -3 50 -7 0 -4 6 -5 14 -2 16 6 89
-54 80 -67 -3 -5 -1 -9 5 -9 6 0 8 -7 5 -15 -4 -8 -1 -15 6 -15 8 0 10 -28 8
-97 l-3 -98 169 3 169 3 -6 -453 c-4 -250 -4 -475 -1 -501 l7 -48 54 7 c36 4
58 2 68 -6 8 -7 22 -10 30 -6 14 5 15 64 13 506 l-3 501 160 -3 160 -3 -3 68
c-2 42 1 73 8 82 6 8 9 23 5 35 -4 11 -2 20 4 20 6 0 8 6 5 14 -6 16 44 78 57
70 5 -3 9 0 9 6 0 6 5 8 10 5 6 -3 10 -2 10 2 0 5 27 8 60 8 33 0 60 -3 60 -8
0 -4 5 -5 10 -2 6 3 10 1 10 -5 0 -6 4 -9 9 -6 13 8 63 -54 57 -70 -3 -8 -1
-14 5 -14 6 0 8 -7 5 -16 -4 -9 -1 -22 5 -30 6 -8 9 -43 7 -86 l-3 -73 160 3
160 3 0 -503 0 -503 45 2 c65 3 79 6 74 15 -3 4 -1 8 3 8 5 0 18 7 29 16 10 8
12 13 4 9 -13 -6 -13 -5 0 7 8 7 16 20 18 28 2 8 10 20 17 26 8 6 12 14 8 17
-3 4 -1 7 6 7 7 0 10 4 6 10 -3 5 2 18 12 28 10 10 19 25 21 33 2 8 13 22 25
32 12 10 15 16 7 12 -8 -4 -4 3 10 15 14 12 18 18 10 14 -13 -7 -13 -5 -1 12
8 10 26 30 40 43 14 13 19 20 11 16 -8 -3 3 10 25 31 22 20 31 31 20 23 -11
-8 27 33 85 90 58 58 108 104 112 103 3 -1 12 6 20 16 12 15 11 16 -4 3 -10
-7 -18 -11 -18 -8 0 2 17 17 37 33 20 15 33 21 29 13 -5 -8 4 0 19 16 14 17
23 23 20 15 -4 -8 3 -4 15 10 12 14 19 18 15 10 -4 -8 3 -4 14 10 11 14 21 21
21 16 0 -6 7 -1 16 10 8 10 13 12 9 4 -4 -8 1 -6 9 4 9 11 16 17 16 13 0 -4 9
2 20 13 12 12 25 18 30 15 6 -4 10 -1 10 5 0 6 5 8 10 5 6 -3 10 -1 10 5 0 6
5 8 10 5 6 -3 10 -1 10 5 0 6 5 8 10 5 6 -3 10 -1 10 5 0 6 5 8 10 5 6 -3 10
-1 10 5 0 6 5 8 10 5 6 -3 10 -1 10 5 0 6 5 8 10 5 6 -3 10 -1 10 5 0 7 7 9
16 6 10 -4 13 -2 8 6 -5 8 -2 9 9 5 10 -3 17 -2 17 3 0 5 7 6 17 3 12 -5 14
-3 8 7 -6 10 -4 12 8 7 10 -4 17 -2 17 4 0 6 7 9 15 5 8 -3 15 -1 15 5 0 6 7
9 15 5 8 -3 15 -1 15 5 0 6 7 9 15 5 8 -3 15 -1 15 5 0 6 9 8 20 4 12 -4 20
-2 20 5 0 7 8 9 20 5 12 -4 20 -2 20 5 0 7 8 10 20 7 11 -3 20 -1 20 5 0 5 12
7 30 3 20 -4 30 -3 30 5 0 8 9 10 25 6 14 -4 31 -3 38 1 7 4 35 9 62 10 28 1
80 5 118 8 48 5 71 4 82 -5 9 -7 18 -11 21 -8 6 7 79 -64 76 -74 -1 -5 3 -8 9
-8 5 0 7 -4 4 -10 -3 -5 -1 -10 4 -10 8 0 11 678 11 2265 l0 2265 -2355 0
c-1715 0 -2355 -3 -2355 -11z m3430 -1534 c13 -14 21 -25 18 -25 -2 0 -15 11
-28 25 -13 14 -21 25 -18 25 2 0 15 -11 28 -25z m-1360 -2149 c0 -2 -8 -10
-17 -17 -16 -13 -17 -12 -4 4 13 16 21 21 21 13z m2585 -756 c10 -11 16 -20
13 -20 -3 0 -13 9 -23 20 -10 11 -16 20 -13 20 3 0 13 -9 23 -20z m-1255 -435
c-24 -25 -46 -45 -49 -45 -3 0 15 20 39 45 24 25 46 45 49 45 3 0 -15 -20 -39
-45z"/>
<path d="M4810 9120 c0 -9 -9 -11 -30 -6 -18 3 -30 1 -30 -5 0 -6 -9 -8 -20
-4 -12 4 -20 2 -20 -5 0 -7 -8 -9 -20 -5 -12 4 -20 2 -20 -5 0 -7 -8 -9 -21
-5 -16 5 -19 4 -14 -5 5 -9 2 -10 -14 -5 -13 4 -21 2 -21 -5 0 -7 -7 -10 -15
-6 -8 3 -15 1 -15 -5 0 -6 -7 -9 -15 -5 -8 3 -15 1 -15 -5 0 -6 -7 -9 -15 -5
-8 3 -15 1 -15 -5 0 -6 -4 -7 -10 -4 -5 3 -10 1 -10 -5 0 -7 -7 -10 -15 -6 -8
3 -15 1 -15 -5 0 -6 -4 -7 -10 -4 -5 3 -10 1 -10 -5 0 -7 -7 -9 -16 -6 -8 3
-13 2 -10 -3 7 -11 -22 -23 -35 -15 -5 3 -9 0 -9 -6 0 -6 -4 -9 -9 -6 -5 3
-12 -1 -15 -10 -4 -9 -13 -14 -22 -10 -8 3 -12 2 -9 -4 6 -9 -8 -14 -27 -11
-5 0 -8 -4 -8 -11 0 -6 -3 -8 -7 -5 -3 4 -12 -1 -20 -11 -9 -10 -12 -11 -7 -2
4 8 -5 2 -19 -13 -15 -16 -32 -25 -39 -21 -6 4 -8 3 -5 -2 3 -6 -3 -16 -15
-23 -16 -10 -19 -10 -13 1 4 7 -3 2 -16 -12 -13 -14 -22 -21 -19 -15 3 6 -8
-3 -23 -20 -16 -16 -25 -23 -21 -15 4 8 -10 -3 -32 -26 -21 -22 -34 -33 -29
-24 6 8 -12 -8 -38 -37 -26 -29 -71 -74 -100 -100 -29 -26 -45 -43 -37 -38 9
6 -4 -10 -29 -34 -25 -25 -37 -39 -26 -32 11 7 4 -1 -15 -19 -19 -18 -28 -29
-20 -26 8 4 2 -5 -15 -19 -16 -15 -24 -24 -17 -20 11 6 11 3 1 -13 -7 -12 -17
-18 -21 -16 -5 3 -8 2 -7 -3 4 -21 -2 -34 -13 -27 -7 4 -8 3 -4 -4 4 -6 -2
-20 -14 -32 -11 -11 -17 -20 -12 -20 4 0 -2 -7 -13 -16 -11 -8 -19 -17 -17
-19 6 -12 1 -26 -8 -20 -6 3 -7 -1 -4 -9 4 -9 -1 -18 -10 -22 -9 -3 -13 -10
-10 -15 3 -5 0 -9 -6 -9 -6 0 -8 -4 -5 -10 3 -5 1 -10 -4 -10 -6 0 -10 -3 -9
-7 4 -16 -14 -53 -23 -48 -5 3 -6 0 -3 -8 3 -8 -2 -21 -10 -30 -8 -8 -12 -17
-9 -21 4 -3 1 -6 -6 -6 -7 0 -9 -4 -6 -10 3 -5 2 -10 -4 -10 -6 0 -7 -7 -4
-17 4 -11 3 -14 -5 -9 -8 5 -10 2 -6 -8 3 -9 1 -16 -6 -16 -6 0 -8 -4 -5 -10
3 -5 2 -10 -4 -10 -6 0 -8 -7 -5 -15 4 -8 1 -15 -6 -15 -6 0 -8 -4 -5 -10 3
-5 2 -10 -4 -10 -6 0 -8 -7 -5 -15 4 -8 1 -15 -5 -15 -6 0 -8 -7 -5 -15 4 -8
1 -15 -5 -15 -6 0 -8 -7 -4 -17 5 -12 3 -14 -7 -8 -10 6 -12 4 -7 -8 3 -10 2
-17 -4 -17 -6 0 -8 -9 -4 -20 4 -11 2 -20 -4 -20 -6 0 -8 -7 -5 -15 4 -8 1
-15 -5 -15 -6 0 -8 -7 -5 -15 4 -8 1 -15 -6 -15 -7 0 -9 -8 -5 -20 4 -11 2
-20 -4 -20 -6 0 -8 -6 -5 -14 3 -8 1 -17 -4 -20 -6 -3 -8 -15 -5 -26 3 -11 1
-20 -5 -20 -6 0 -8 -9 -5 -20 3 -11 0 -20 -6 -20 -7 0 -9 -9 -5 -25 4 -16 2
-25 -5 -25 -7 0 -9 -9 -5 -25 4 -16 2 -25 -5 -25 -7 0 -9 -9 -5 -24 3 -13 1
-27 -5 -30 -6 -4 -8 -20 -4 -36 3 -19 1 -30 -6 -30 -7 0 -9 -13 -5 -39 4 -23
2 -41 -5 -45 -6 -4 -8 -24 -4 -51 3 -28 1 -50 -6 -59 -8 -9 -10 -35 -5 -79 4
-43 3 -67 -5 -71 -20 -13 -12 -56 16 -84 15 -16 21 -19 14 -7 -7 11 6 0 30
-25 23 -25 37 -36 30 -25 -7 11 4 2 24 -20 21 -22 35 -33 31 -25 -4 8 5 2 19
-15 15 -16 24 -23 20 -15 -3 8 2 6 12 -5 10 -11 24 -21 32 -23 20 -4 61 -33
61 -44 0 -5 5 -6 10 -3 6 3 10 1 10 -4 0 -6 3 -10 8 -9 12 4 72 -24 72 -34 0
-5 5 -6 10 -3 6 3 10 1 10 -5 0 -6 5 -8 10 -5 6 3 10 2 10 -4 0 -6 7 -8 15 -5
8 4 15 1 15 -5 0 -6 7 -8 15 -5 8 4 15 1 15 -5 0 -6 7 -8 15 -5 8 4 15 1 15
-5 0 -6 7 -8 15 -5 8 4 15 2 15 -4 0 -6 9 -8 20 -5 12 3 20 0 20 -7 0 -7 8 -9
19 -5 11 3 22 1 26 -4 3 -6 19 -8 34 -5 16 3 31 2 34 -2 6 -11 205 -10 230 1
9 4 24 4 33 1 9 -4 23 -1 30 5 8 6 21 9 29 5 8 -3 15 -1 15 5 0 6 9 8 20 4 12
-4 20 -2 20 5 0 7 7 10 15 6 8 -3 15 -1 15 5 0 6 7 9 15 5 8 -3 15 -1 15 5 0
6 7 8 16 5 10 -4 13 -2 8 6 -5 8 -2 9 9 5 10 -3 17 -2 17 4 0 6 5 7 10 4 6 -3
10 -1 10 5 0 6 5 8 10 5 6 -3 10 -2 10 3 0 10 60 38 73 34 4 -1 7 3 7 10 0 6
3 8 7 5 3 -4 12 1 20 11 9 10 12 11 7 2 -4 -8 5 -2 19 13 15 16 32 25 39 21 6
-4 8 -3 5 2 -3 6 3 16 15 23 11 7 17 8 14 3 -3 -6 22 16 56 49 33 32 64 56 68
54 4 -2 19 8 34 24 l26 27 0 1099 c0 604 -2 1100 -4 1102 -2 2 -20 7 -40 10
-25 4 -36 2 -36 -7z m80 -2193 c0 -2 -15 -16 -32 -33 l-33 -29 29 33 c28 30
36 37 36 29z"/>
<path d="M6345 8992 c-1 -2 24 -28 56 -59 32 -30 57 -59 56 -65 -1 -5 27 -36
63 -70 36 -33 56 -55 45 -48 -11 7 -2 -4 20 -25 22 -20 33 -33 25 -29 -9 5 -2
-4 15 -19 16 -16 23 -25 15 -21 -8 4 0 -7 18 -24 20 -19 31 -36 26 -43 -4 -7
-3 -9 2 -6 6 3 16 -3 23 -15 10 -16 10 -19 -1 -12 -7 4 0 -5 15 -19 15 -15 26
-31 23 -36 -3 -5 1 -12 10 -15 8 -3 12 -10 9 -16 -3 -5 -2 -10 4 -10 6 0 15
-10 22 -21 9 -17 8 -20 -3 -14 -7 3 -5 0 4 -8 10 -8 15 -17 11 -20 -3 -4 -1
-7 6 -7 7 0 10 -4 7 -9 -3 -5 1 -12 10 -15 9 -4 14 -13 10 -22 -3 -8 -2 -13 2
-10 12 7 54 -83 46 -96 -4 -6 -2 -8 3 -5 12 8 26 -20 17 -34 -3 -5 0 -9 6 -9
6 0 8 -4 5 -10 -3 -5 -1 -10 5 -10 6 0 8 -4 5 -10 -3 -5 -1 -10 5 -10 7 0 10
-7 6 -15 -3 -8 -1 -15 5 -15 6 0 7 -4 4 -10 -3 -5 -1 -10 5 -10 7 0 9 -7 6
-16 -4 -10 -2 -13 6 -8 8 5 9 2 5 -9 -4 -10 -2 -17 4 -17 6 0 9 -7 5 -15 -3
-8 -1 -15 4 -15 5 0 6 -7 3 -17 -5 -12 -3 -14 7 -8 10 6 12 4 7 -8 -4 -10 -2
-17 4 -17 6 0 9 -7 5 -15 -3 -8 -1 -15 5 -15 6 0 9 -7 5 -15 -3 -8 -1 -15 5
-15 6 0 9 -7 5 -15 -3 -8 -1 -15 5 -15 6 0 8 -9 4 -21 -5 -16 -4 -19 6 -14 9
6 11 2 7 -13 -4 -12 -2 -22 4 -22 6 0 8 -7 4 -15 -3 -8 0 -15 5 -15 6 0 9 -9
6 -20 -3 -11 -1 -20 5 -20 6 0 8 -9 5 -20 -3 -11 -1 -20 5 -20 6 0 8 -9 5 -20
-3 -11 -1 -20 5 -20 6 0 7 -11 4 -25 -4 -15 -2 -25 4 -25 7 0 9 -8 5 -19 -3
-11 -1 -22 5 -26 7 -4 9 -18 6 -31 -4 -15 -2 -24 5 -24 7 0 9 -9 5 -25 -4 -15
-2 -25 5 -25 7 0 8 -11 4 -30 -4 -20 -3 -30 5 -30 8 0 11 -10 7 -30 -4 -16 -2
-32 4 -35 5 -4 7 -21 3 -41 -4 -24 -3 -34 6 -34 9 0 10 -12 6 -44 -5 -29 -3
-47 4 -51 8 -5 10 -35 5 -101 -6 -70 -4 -94 4 -94 8 0 10 -8 6 -21 -5 -15 -4
-19 4 -15 10 6 15 -6 9 -19 -5 -8 95 -104 103 -100 4 3 28 -15 54 -40 26 -26
44 -40 40 -33 -4 7 3 2 15 -12 12 -14 19 -19 15 -11 -5 9 1 8 19 -4 14 -10 26
-21 26 -26 0 -5 3 -8 8 -8 19 3 33 -2 27 -11 -4 -6 1 -7 11 -3 12 4 15 3 10
-5 -5 -8 -1 -10 10 -5 12 4 15 3 10 -5 -5 -8 -1 -10 10 -5 12 4 15 3 10 -5 -5
-8 -2 -10 8 -6 9 3 16 1 16 -6 0 -6 5 -8 10 -5 6 3 10 1 10 -5 0 -6 5 -8 10
-5 6 3 10 2 10 -4 0 -6 7 -8 15 -5 8 4 15 1 15 -5 0 -6 7 -8 15 -5 8 4 15 1
15 -5 0 -6 7 -8 15 -5 8 4 15 1 15 -6 0 -7 8 -9 20 -5 11 3 20 2 20 -3 0 -6 9
-8 20 -5 11 3 20 0 20 -6 0 -7 9 -9 24 -5 13 3 27 1 31 -5 4 -7 21 -9 44 -5
24 4 41 2 45 -5 9 -14 133 -14 142 0 4 7 21 9 45 5 26 -4 39 -2 39 5 0 7 9 9
25 5 16 -4 25 -2 25 5 0 6 9 9 20 6 11 -3 20 -1 20 5 0 6 7 8 15 4 8 -3 15 -1
15 5 0 6 9 8 20 4 12 -4 20 -2 20 5 0 6 5 8 10 5 6 -3 10 -1 10 5 0 7 7 10 15
6 8 -3 15 -1 15 5 0 6 5 7 10 4 6 -3 10 -1 10 5 0 6 5 8 10 5 6 -3 10 -1 10 5
0 6 5 8 10 5 6 -3 10 -1 10 5 0 6 5 8 10 5 6 -3 10 -1 10 5 0 6 5 8 10 5 6 -3
10 -1 10 5 0 6 5 8 10 5 6 -3 10 -2 10 4 0 6 10 15 21 22 17 9 20 8 14 -3 -3
-7 1 -4 9 6 9 11 16 16 16 10 0 -5 5 -1 11 9 6 9 14 15 19 12 4 -3 11 2 14 11
3 8 10 12 16 9 5 -3 10 -2 10 3 0 5 17 22 38 38 24 19 32 22 22 9 -8 -11 14 9
50 45 36 36 63 71 61 78 -2 6 2 12 8 12 14 0 14 37 0 46 -6 4 -8 20 -5 39 4
20 2 36 -5 40 -6 4 -8 18 -5 30 3 13 1 27 -5 31 -6 3 -9 15 -6 25 3 11 1 19
-5 19 -6 0 -7 11 -4 25 4 16 2 25 -5 25 -6 0 -9 7 -5 15 3 8 1 15 -5 15 -6 0
-8 9 -4 20 4 12 2 20 -5 20 -7 0 -10 7 -6 15 3 8 1 15 -5 15 -6 0 -9 7 -5 15
3 8 1 15 -4 15 -5 0 -6 7 -3 17 5 12 3 14 -7 8 -10 -6 -12 -4 -7 8 3 10 2 17
-3 17 -5 0 -6 7 -3 17 5 12 3 14 -7 8 -10 -6 -12 -4 -7 8 3 10 2 17 -4 17 -6
0 -7 5 -4 10 3 6 1 10 -6 10 -7 0 -10 3 -6 6 3 4 -1 13 -9 21 -8 8 -12 19 -9
24 4 5 1 9 -5 9 -6 0 -8 5 -5 10 3 6 1 10 -5 10 -6 0 -8 5 -5 10 3 6 1 10 -6
10 -7 0 -10 3 -6 6 3 3 -3 14 -14 25 -11 11 -17 24 -14 29 4 6 1 10 -5 10 -6
0 -9 4 -6 9 3 5 -1 12 -10 15 -9 4 -14 9 -11 13 4 3 -1 12 -11 20 -11 10 -12
12 -2 8 8 -4 4 3 -10 15 -14 12 -18 18 -10 14 8 -4 0 7 -18 24 -19 17 -31 36
-28 41 4 5 1 13 -5 17 -8 4 -9 3 -5 -4 15 -25 -1 -11 -24 21 -20 26 -20 29 -4
18 10 -8 -1 5 -26 28 -25 24 -36 38 -25 31 11 -7 1 4 -23 24 -23 21 -40 41
-38 45 3 4 -29 41 -69 81 -41 41 -75 70 -75 65 -1 -6 -19 10 -42 35 -23 25
-35 36 -28 25 9 -12 0 -8 -20 10 -53 46 -56 49 -41 40 10 -5 12 -4 7 4 -4 6
-11 9 -16 6 -5 -3 -28 13 -51 36 -23 23 -39 36 -35 28 4 -8 -5 0 -19 16 -15
17 -24 23 -19 16 4 -9 -6 -5 -24 8 -18 12 -32 27 -32 32 0 5 -4 8 -9 6 -5 -1
-17 7 -26 18 -9 11 -14 13 -10 5 4 -10 2 -9 -8 2 -8 10 -17 15 -20 11 -4 -3
-9 2 -13 11 -3 9 -10 13 -15 10 -5 -3 -21 8 -36 23 -14 15 -23 21 -19 13 4 -8
0 -6 -8 4 -9 11 -16 16 -16 11 0 -5 -7 0 -16 11 -8 10 -13 12 -9 4 4 -10 2 -9
-8 2 -8 10 -17 15 -20 11 -4 -3 -7 -1 -7 6 0 7 -4 10 -10 6 -5 -3 -18 3 -29
14 -11 11 -22 17 -25 13 -3 -3 -6 0 -6 7 0 7 -4 9 -10 6 -5 -3 -10 -1 -10 5 0
6 -4 8 -10 5 -5 -3 -10 -1 -10 4 0 6 -3 10 -7 9 -16 -4 -53 14 -48 23 3 5 -2
6 -11 2 -12 -4 -15 -3 -10 5 5 8 1 10 -10 5 -12 -4 -15 -3 -10 5 5 8 1 10 -10
5 -12 -4 -15 -3 -10 5 4 8 2 10 -7 6 -8 -3 -21 2 -30 10 -8 8 -17 12 -21 9 -3
-4 -6 -1 -6 6 0 7 -4 9 -10 6 -5 -3 -10 -1 -10 5 0 6 -4 8 -10 5 -5 -3 -10 -2
-10 4 0 6 -7 7 -17 4 -11 -4 -14 -3 -9 5 5 8 2 10 -8 6 -9 -3 -16 -1 -16 6 0
6 -4 8 -10 5 -5 -3 -10 -1 -10 5 0 6 -4 8 -10 5 -5 -3 -10 -2 -10 4 0 6 -7 8
-15 5 -8 -4 -15 -1 -15 6 0 6 -4 8 -10 5 -5 -3 -10 -2 -10 4 0 6 -7 7 -17 4
-11 -4 -14 -3 -9 5 5 8 2 10 -8 6 -9 -3 -16 -1 -16 5 0 6 -7 8 -17 4 -12 -5
-14 -3 -8 7 6 10 4 12 -8 7 -10 -3 -17 -2 -17 3 0 5 -7 7 -15 4 -8 -4 -15 -1
-15 5 0 6 -7 8 -17 4 -11 -4 -14 -3 -9 5 5 8 2 10 -8 6 -9 -3 -16 -1 -16 5 0
6 -7 8 -15 5 -8 -4 -15 -1 -15 5 0 6 -7 8 -15 5 -8 -4 -15 -1 -15 5 0 6 -7 8
-15 5 -8 -4 -15 -1 -15 5 0 6 -7 8 -15 5 -8 -4 -15 -1 -15 5 0 6 -7 8 -15 5
-8 -4 -15 -1 -15 5 0 6 -7 8 -15 5 -8 -4 -15 -1 -15 5 0 6 -7 8 -15 5 -8 -4
-15 -1 -15 6 0 7 -8 9 -20 5 -11 -4 -20 -2 -20 4 0 6 -7 8 -15 5 -8 -4 -15 -1
-15 5 0 6 -7 8 -15 5 -8 -4 -15 -1 -15 6 0 7 -8 9 -20 5 -11 -3 -20 -2 -20 3
0 6 -9 8 -20 5 -11 -3 -20 0 -20 6 0 5 -7 8 -15 5 -8 -4 -15 -1 -15 6 0 7 -8
9 -20 5 -11 -4 -20 -2 -20 4 0 6 -6 8 -14 5 -8 -3 -17 -1 -20 5 -4 6 -13 8
-21 4 -8 -3 -15 0 -15 7 0 7 -8 9 -20 5 -11 -3 -20 -2 -20 3 0 8 -57 12 -65 4z
m151 -154 l29 -33 -32 29 c-31 28 -38 36 -30 36 2 0 16 -15 33 -32z m1769
-798 c38 -38 67 -70 64 -70 -2 0 -36 32 -74 70 -38 39 -67 70 -64 70 2 0 36
-31 74 -70z m-965 -1217 c0 -8 -9 0 -50 45 l-45 47 48 -45 c26 -24 47 -45 47
-47z"/>
<path d="M8759 6853 l-24 -28 28 24 c15 14 27 26 27 28 0 8 -8 1 -31 -24z"/>
<path d="M4749 6793 c-13 -16 -12 -17 4 -4 16 13 21 21 13 21 -2 0 -10 -8 -17
-17z"/>
<path d="M2555 5330 c10 -11 20 -20 23 -20 3 0 -3 9 -13 20 -10 11 -20 20 -23
20 -3 0 3 -9 13 -20z"/>
<path d="M1 5244 c0 -11 3 -14 6 -6 3 7 2 16 -1 19 -3 4 -6 -2 -5 -13z"/>
<path d="M1 5194 c0 -11 3 -14 6 -6 3 7 2 16 -1 19 -3 4 -6 -2 -5 -13z"/>
<path d="M7 5163 c-4 -3 -7 -1167 -7 -2585 l0 -2578 1398 1 c929 0 1389 4
1372 10 -13 6 -41 7 -61 4 -23 -4 -40 -2 -44 5 -4 6 -15 8 -26 5 -11 -4 -19
-2 -19 5 0 7 -8 9 -20 5 -12 -4 -20 -2 -20 5 0 7 -8 9 -20 5 -11 -4 -20 -2
-20 4 0 6 -7 8 -15 5 -8 -4 -15 -1 -15 5 0 6 -7 8 -15 5 -8 -4 -15 -1 -15 5 0
6 -7 8 -17 4 -11 -4 -14 -3 -9 5 5 8 2 10 -8 6 -9 -3 -16 -1 -16 5 0 6 -7 8
-15 5 -8 -4 -15 -1 -15 6 0 6 -5 8 -10 5 -6 -3 -10 -1 -10 5 0 6 -5 8 -10 5
-6 -3 -10 -2 -10 4 0 6 -7 7 -17 4 -11 -4 -14 -3 -9 5 4 8 2 10 -7 6 -8 -3
-22 2 -31 11 -9 9 -16 14 -16 10 0 -3 -13 1 -30 10 -16 9 -30 20 -30 26 0 6
-4 7 -10 4 -5 -3 -10 -1 -10 5 0 6 -4 8 -10 5 -5 -3 -22 7 -37 22 -14 15 -23
21 -19 13 4 -8 -2 -4 -14 10 -12 14 -19 18 -15 10 4 -8 -3 -4 -15 10 -12 14
-19 18 -15 10 3 -8 -6 -1 -20 15 -15 17 -24 23 -20 15 3 -8 -10 3 -31 25 -20
22 -31 31 -24 20 8 -11 -28 20 -78 70 -90 87 -110 110 -74 85 9 -7 -1 4 -23
24 -22 21 -33 34 -25 31 8 -4 2 5 -15 20 -16 14 -23 23 -15 19 8 -4 0 7 -18
24 -19 17 -31 36 -28 41 3 5 -1 12 -10 15 -9 4 -14 9 -11 12 3 3 -3 14 -14 25
-11 11 -17 24 -14 29 4 6 1 10 -5 10 -6 0 -8 5 -5 10 3 6 1 10 -5 10 -6 0 -9
4 -6 9 3 5 -1 12 -10 15 -9 4 -14 13 -10 21 3 8 1 15 -5 15 -6 0 -7 5 -4 10 3
6 1 10 -5 10 -6 0 -8 5 -5 10 3 6 1 10 -5 10 -6 0 -8 5 -5 10 3 6 1 10 -5 10
-7 0 -10 7 -6 15 3 8 1 15 -5 15 -6 0 -7 5 -4 10 3 6 1 10 -5 10 -7 0 -10 7
-6 15 3 8 1 15 -5 15 -6 0 -9 7 -5 15 3 8 1 15 -5 15 -6 0 -9 7 -5 15 3 8 1
15 -5 15 -6 0 -8 9 -4 20 4 12 2 20 -5 20 -7 0 -9 8 -5 20 4 12 2 20 -5 20 -8
0 -10 9 -6 25 4 15 2 25 -5 25 -7 0 -8 11 -4 30 4 20 3 30 -5 30 -9 0 -11 12
-6 41 4 25 2 46 -4 54 -8 9 -9 55 -6 137 3 68 6 144 6 170 0 26 5 50 10 53 5
3 7 19 3 35 -3 19 -1 30 6 30 7 0 9 9 5 25 -4 16 -2 25 5 25 7 0 9 9 5 25 -3
14 -2 25 4 25 6 0 8 9 5 20 -3 11 0 20 6 20 5 0 8 7 5 15 -4 8 -1 15 5 15 6 0
8 7 5 15 -4 8 -1 15 5 15 6 0 8 7 5 15 -4 8 -1 15 6 15 6 0 8 5 5 10 -3 6 -2
10 4 10 6 0 8 7 5 15 -4 8 -1 15 6 15 6 0 8 5 5 10 -3 6 -1 10 5 10 6 0 9 4 6
9 -8 13 4 42 15 35 5 -3 6 3 2 12 -4 12 -3 15 5 10 8 -4 10 -2 6 8 -3 8 3 23
14 34 11 11 18 23 15 26 -4 3 -1 6 6 6 7 0 10 4 6 10 -3 5 3 18 15 30 11 11
17 20 13 20 -5 0 -1 6 7 13 8 7 16 18 18 25 4 20 33 62 43 62 5 0 8 3 8 7 -3
20 2 34 11 28 6 -3 7 1 4 9 -3 9 -1 16 5 16 6 0 8 6 6 13 -7 16 -5 16 -702 15
l-603 0 0 1071 0 1071 324 0 324 0 7 153 c4 97 2 165 -4 187 -6 19 -11 56 -11
81 0 35 -5 49 -17 55 -10 5 -146 10 -303 11 -157 2 -366 5 -465 8 -99 3 -199
5 -222 5 -25 1 -43 6 -43 12 0 6 -2 9 -5 6 -9 -9 -67 51 -60 62 7 11 2 14 -8
3z"/>
<path d="M9784 5161 c3 -5 -2 -17 -12 -28 -9 -10 -13 -12 -8 -3 5 8 -5 0 -22
-18 -20 -20 -39 -32 -47 -28 -8 3 -15 1 -15 -4 0 -5 -7 -7 -15 -4 -8 4 -15 1
-15 -6 0 -8 -9 -10 -24 -6 -14 3 -28 1 -32 -5 -4 -7 -21 -9 -45 -5 -26 4 -39
2 -39 -5 0 -7 -11 -9 -30 -5 -19 3 -30 1 -30 -5 0 -7 -11 -9 -25 -7 -14 3 -28
1 -31 -4 -3 -5 -14 -6 -25 -3 -11 4 -19 2 -19 -5 0 -7 -8 -10 -20 -7 -11 3
-20 1 -20 -5 0 -5 -9 -6 -20 -3 -12 4 -20 2 -20 -5 0 -7 -7 -10 -15 -6 -8 3
-15 1 -15 -5 0 -6 -9 -8 -21 -4 -16 5 -19 4 -14 -6 6 -9 3 -11 -8 -6 -10 4
-17 2 -17 -4 0 -6 -7 -9 -15 -5 -8 3 -15 1 -15 -5 0 -6 -4 -7 -10 -4 -5 3 -10
1 -10 -5 0 -7 -7 -10 -15 -6 -8 3 -15 1 -15 -5 0 -6 -4 -7 -10 -4 -5 3 -10 1
-10 -5 0 -6 -4 -8 -10 -5 -5 3 -10 1 -10 -5 0 -6 -4 -8 -10 -5 -5 3 -10 1 -10
-5 0 -6 -4 -8 -10 -5 -5 3 -10 1 -10 -5 0 -6 -4 -8 -10 -5 -5 3 -10 1 -10 -6
0 -7 -3 -9 -7 -6 -3 4 -12 -1 -20 -11 -10 -11 -12 -12 -8 -2 4 8 -1 6 -9 -4
-9 -11 -16 -16 -16 -11 0 5 -7 0 -15 -11 -8 -10 -15 -15 -15 -10 0 4 -9 -2
-21 -15 -11 -13 -17 -17 -14 -9 4 8 -3 4 -16 -10 -13 -14 -20 -19 -15 -10 5 8
-8 -3 -29 -25 -20 -22 -32 -31 -25 -20 7 11 -6 -1 -29 -27 -23 -26 -65 -68
-94 -94 -29 -26 -43 -41 -32 -34 16 11 14 8 -5 -15 -38 -46 -44 -52 -35 -35 5
9 4 12 -1 7 -5 -5 -10 -13 -10 -18 -1 -5 -2 -14 -3 -20 0 -5 -6 -7 -11 -4 -6
4 -10 3 -9 -2 4 -21 -2 -34 -13 -27 -7 4 -8 3 -4 -4 4 -6 -2 -20 -14 -32 -11
-11 -20 -22 -20 -25 0 -3 0 -10 0 -16 0 -5 -4 -7 -10 -4 -6 3 -7 -1 -4 -9 4
-9 -1 -18 -10 -22 -9 -3 -13 -10 -10 -15 3 -5 0 -9 -6 -9 -6 0 -8 -4 -5 -10 3
-5 1 -10 -5 -10 -6 0 -8 -4 -5 -10 3 -5 2 -10 -4 -10 -6 0 -7 -7 -4 -17 4 -11
3 -14 -5 -9 -8 5 -10 2 -6 -8 3 -9 1 -16 -6 -16 -6 0 -8 -4 -5 -10 3 -5 2 -10
-4 -10 -6 0 -8 -7 -5 -15 4 -8 1 -15 -6 -15 -6 0 -8 -4 -5 -10 3 -5 2 -10 -4
-10 -6 0 -8 -7 -5 -15 4 -8 1 -15 -5 -15 -6 0 -8 -7 -5 -15 4 -8 1 -15 -5 -15
-6 0 -8 -7 -5 -15 4 -8 1 -15 -5 -15 -6 0 -8 -7 -5 -15 4 -8 1 -15 -5 -15 -6
0 -8 -7 -5 -15 4 -8 1 -15 -5 -15 -6 0 -8 -7 -5 -15 4 -8 2 -15 -2 -15 -9 0
-11 -242 -16 -1798 l-3 -924 168 4 c92 1 167 -1 167 -5 0 -5 9 -5 20 -2 11 4
20 2 20 -4 0 -6 7 -8 15 -5 8 4 15 1 15 -6 0 -6 5 -8 10 -5 6 3 10 1 10 -5 0
-6 5 -8 10 -5 6 3 10 1 10 -5 0 -6 5 -8 10 -5 6 3 10 1 10 -6 0 -7 3 -9 7 -6
3 4 12 -1 20 -11 10 -11 12 -12 8 -2 -4 8 3 4 15 -10 12 -14 19 -19 15 -11 -5
9 1 8 19 -4 26 -17 37 -33 14 -19 -8 4 -10 3 -5 -2 5 -5 12 -9 17 -9 13 0 99
-88 94 -96 -2 -4 1 -11 7 -15 8 -4 9 -3 5 4 -15 24 2 11 19 -14 11 -18 13 -24
4 -19 -8 5 -1 -4 14 -18 15 -15 25 -32 22 -37 -3 -6 -1 -10 6 -10 7 0 10 -3 6
-6 -3 -4 1 -13 9 -21 8 -9 13 -22 10 -29 -3 -8 -1 -14 5 -14 6 0 9 -7 5 -15
-3 -8 -1 -15 5 -15 6 0 9 -7 5 -15 -3 -8 -1 -15 5 -15 6 0 8 -9 4 -20 -4 -12
-2 -20 5 -20 8 0 10 -11 6 -35 -4 -22 -3 -35 4 -35 6 0 10 -25 10 -60 0 -37
-4 -60 -11 -60 -7 0 -9 -12 -5 -35 5 -23 3 -35 -4 -35 -7 0 -9 -8 -5 -20 4
-11 2 -20 -4 -20 -6 0 -8 -7 -5 -15 4 -8 1 -15 -5 -15 -6 0 -8 -7 -5 -15 4 -8
1 -15 -6 -15 -6 0 -9 -4 -6 -9 8 -13 -4 -42 -15 -35 -5 3 -6 -2 -3 -10 4 -9
-6 -26 -23 -42 -15 -15 -21 -24 -13 -20 8 4 4 -2 -10 -14 -14 -12 -18 -19 -10
-15 8 4 -8 -13 -37 -39 -29 -26 -71 -68 -94 -94 -23 -26 -38 -40 -34 -32 3 8
-1 6 -10 -5 -9 -11 -21 -19 -26 -18 -5 2 -9 -2 -9 -8 0 -5 -4 -7 -10 -4 -5 3
-10 1 -10 -5 0 -6 -4 -8 -10 -5 -5 3 -10 1 -10 -5 0 -6 -4 -8 -10 -5 -5 3 -10
1 -10 -5 0 -6 -4 -8 -10 -5 -5 3 -10 1 -10 -5 0 -7 -8 -9 -20 -5 -12 4 -20 2
-20 -5 0 -7 -8 -9 -20 -5 -12 4 -20 2 -20 -5 0 -8 -10 -9 -29 -5 -17 3 -32 2
-36 -4 -4 -8 177 -11 604 -11 l611 0 0 2585 c0 1813 -3 2585 -11 2585 -5 0 -8
-4 -5 -9z m-784 -4924 c0 -1 -26 -27 -57 -57 l-58 -55 55 58 c50 53 60 62 60
54z"/>
<path d="M6240 5057 c0 -4 -7 -7 -15 -5 -12 3 -15 -40 -19 -302 -3 -168 -2
-315 1 -327 5 -21 9 -22 121 -20 65 1 135 -2 157 -7 l40 -8 0 339 0 338 -143
0 c-78 0 -142 -4 -142 -8z"/>
<path d="M7342 4730 l3 -335 165 0 165 0 3 335 2 335 -170 0 -170 0 2 -335z"/>
<path d="M4726 4790 c2 -58 5 -168 8 -245 l5 -140 320 -3 321 -2 0 72 c0 39 5
97 11 127 8 37 9 96 4 173 l-7 117 -332 3 -333 3 3 -105z"/>
<path d="M2440 3478 c0 -245 5 -300 25 -268 4 7 19 8 36 5 19 -4 29 -3 29 5 0
8 10 9 30 5 20 -4 30 -3 30 5 0 8 10 11 30 7 16 -4 32 -2 36 4 3 6 22 8 45 4
27 -5 39 -3 39 5 0 8 14 10 49 5 31 -4 51 -3 56 4 9 15 192 15 201 0 4 -7 22
-9 49 -4 28 4 46 2 50 -5 4 -7 19 -9 36 -5 19 4 29 3 29 -5 0 -8 9 -10 24 -6
14 3 28 2 31 -4 3 -6 17 -7 31 -4 15 4 24 2 24 -6 0 -7 8 -9 20 -5 12 4 20 2
20 -5 0 -7 8 -9 20 -5 12 4 20 2 20 -5 0 -7 8 -9 20 -5 11 4 20 2 20 -4 0 -6
7 -8 15 -5 8 4 15 1 15 -5 0 -6 7 -8 15 -5 8 4 15 1 15 -5 0 -6 7 -8 15 -5 8
4 15 1 15 -5 0 -6 7 -8 15 -5 8 4 15 1 15 -6 0 -6 5 -8 10 -5 6 3 10 2 10 -4
0 -6 7 -8 15 -5 8 4 15 1 15 -6 0 -6 5 -8 10 -5 6 3 10 1 10 -5 0 -6 4 -9 9
-6 13 8 42 -4 35 -15 -3 -5 2 -6 10 -3 9 3 16 1 16 -5 0 -6 3 -10 8 -9 15 4
52 -14 47 -23 -3 -5 1 -6 9 -3 9 4 18 -1 22 -10 3 -9 10 -13 15 -10 5 3 9 0 9
-6 0 -6 4 -9 10 -5 5 3 18 -3 30 -15 11 -11 20 -17 20 -12 0 4 7 -2 15 -12 8
-11 15 -16 15 -10 0 5 7 0 15 -10 8 -11 15 -16 15 -10 0 5 10 -2 21 -16 11
-14 18 -18 14 -10 -3 8 6 2 20 -15 15 -16 24 -23 20 -15 -3 8 6 2 20 -15 15
-16 24 -23 20 -15 -4 8 11 -3 32 -25 21 -23 31 -32 23 -20 -8 11 38 -32 102
-95 111 -109 140 -141 100 -109 -10 8 0 -3 23 -24 22 -21 33 -36 25 -32 -8 4
-3 -3 11 -14 31 -24 69 -78 48 -66 -8 4 -3 -3 11 -14 14 -11 21 -21 16 -21 -6
0 -1 -7 10 -15 10 -8 15 -15 10 -15 -6 0 -1 -7 10 -16 10 -8 12 -13 4 -9 -8 4
-6 -1 4 -9 11 -9 16 -16 11 -16 -5 0 0 -7 11 -16 10 -8 12 -13 4 -9 -10 4 -9
2 2 -8 10 -8 15 -17 11 -20 -3 -4 -1 -7 6 -7 7 0 9 -4 6 -10 -3 -6 -2 -10 4
-10 14 0 43 -58 36 -70 -3 -6 -1 -10 5 -10 6 0 8 -4 5 -10 -3 -5 -1 -10 6 -10
7 0 10 -3 6 -6 -3 -4 1 -13 9 -21 8 -9 13 -22 10 -29 -3 -8 -1 -14 4 -14 5 0
6 -7 3 -17 -5 -12 -3 -14 7 -8 10 6 12 4 7 -8 -4 -10 -2 -17 4 -17 6 0 9 -7 5
-15 -3 -8 -1 -15 5 -15 6 0 8 -9 4 -21 -5 -16 -4 -19 6 -14 9 6 11 2 7 -13 -4
-12 -2 -22 4 -22 6 0 8 -7 4 -15 -3 -8 0 -15 5 -15 6 0 9 -9 6 -20 -3 -11 -1
-20 5 -20 6 0 8 -9 5 -20 -3 -11 -1 -20 5 -20 6 0 7 -11 4 -25 -4 -16 -2 -25
5 -25 7 0 9 -9 5 -25 -4 -15 -2 -25 5 -25 7 0 8 -11 4 -29 -4 -17 -2 -32 5
-36 7 -5 9 -25 4 -61 -4 -37 -2 -59 6 -69 6 -8 9 -23 5 -35 -4 -12 -2 -20 5
-20 6 0 9 -8 6 -17 -5 -17 69 -18 1464 -18 l1470 0 0 1135 0 1135 -2620 0
-2620 0 0 -267z"/>
<path d="M2720 2588 c0 -6 -9 -8 -20 -5 -11 3 -20 1 -20 -5 0 -5 -10 -6 -21
-3 -16 5 -19 4 -14 -5 5 -9 1 -10 -15 -5 -17 5 -21 4 -15 -6 6 -9 3 -11 -8 -6
-10 4 -17 2 -17 -4 0 -6 -7 -9 -15 -5 -8 3 -15 1 -15 -5 0 -6 -7 -8 -16 -5
-10 4 -13 2 -8 -6 5 -8 2 -9 -9 -5 -10 3 -17 2 -17 -4 0 -6 -4 -7 -10 -4 -5 3
-10 1 -10 -5 0 -7 -7 -9 -16 -6 -8 3 -13 2 -10 -3 7 -11 -22 -23 -35 -15 -5 3
-9 0 -9 -6 0 -6 -4 -8 -10 -5 -5 3 -10 2 -10 -4 0 -6 -14 -18 -31 -27 -23 -11
-29 -12 -24 -2 4 7 -2 4 -12 -7 -10 -12 -27 -27 -37 -35 -16 -12 -18 -12 -11
-1 5 10 4 12 -3 7 -18 -11 -14 -25 16 -53 15 -14 18 -19 7 -12 -11 8 24 -28
77 -80 54 -51 96 -97 93 -101 -3 -5 28 -38 67 -75 40 -37 66 -64 58 -60 -8 3
-6 -1 5 -10 11 -9 19 -21 17 -26 -1 -5 2 -9 6 -9 4 0 8 -22 8 -50 0 -27 -4
-50 -9 -50 -4 0 -5 -4 -2 -10 3 -5 1 -10 -4 -10 -6 0 -10 -3 -9 -7 5 -16 -74
-84 -89 -79 -9 4 -22 1 -29 -5 -11 -9 -17 -9 -28 0 -7 6 -21 9 -30 5 -9 -3
-16 -1 -16 5 0 6 -4 10 -9 8 -5 -1 -17 7 -26 18 -9 11 -13 13 -9 5 4 -8 -48
42 -115 112 -68 71 -127 126 -131 123 -5 -3 -25 14 -46 37 -20 24 -34 36 -30
28 7 -13 6 -13 -6 0 -19 21 -51 19 -54 -5 -2 -10 -13 -28 -26 -38 -13 -10 -17
-16 -10 -12 11 6 12 3 3 -14 -7 -11 -16 -21 -22 -21 -6 0 -7 -4 -4 -10 3 -5 1
-10 -5 -10 -6 0 -8 -4 -5 -10 3 -5 1 -10 -5 -10 -6 0 -8 -4 -5 -10 3 -5 2 -10
-4 -10 -6 0 -7 -7 -4 -17 4 -11 3 -14 -5 -9 -8 5 -10 2 -6 -8 3 -9 1 -16 -6
-16 -6 0 -8 -4 -5 -10 3 -5 2 -10 -4 -10 -6 0 -8 -7 -5 -15 4 -8 1 -15 -5 -15
-6 0 -8 -7 -5 -15 4 -8 1 -15 -5 -15 -6 0 -8 -7 -5 -15 4 -8 1 -15 -5 -15 -6
0 -8 -7 -5 -15 4 -8 1 -15 -5 -15 -6 0 -8 -7 -5 -15 4 -8 1 -15 -6 -15 -7 0
-9 -8 -5 -20 4 -11 2 -20 -4 -20 -17 0 -13 -28 7 -48 10 -10 24 -16 30 -14 7
2 12 0 12 -5 0 -5 95 -7 210 -5 140 3 215 1 223 -6 7 -6 23 -9 35 -5 28 7 106
-66 96 -91 -3 -9 -2 -16 3 -16 4 0 9 -18 9 -40 1 -22 -2 -40 -7 -40 -5 0 -6
-7 -3 -15 6 -15 -70 -98 -80 -87 -3 3 -6 0 -6 -7 0 -7 -9 -9 -25 -5 -15 4 -25
2 -25 -4 0 -7 -52 -11 -147 -12 -325 -1 -339 -2 -341 -27 -1 -13 3 -23 9 -23
7 0 9 -11 7 -25 -3 -14 -1 -25 5 -25 5 0 7 -9 4 -20 -3 -11 -1 -20 5 -20 6 0
8 -7 4 -15 -3 -8 -1 -15 5 -15 6 0 8 -7 5 -16 -4 -10 -2 -13 6 -8 8 5 9 2 5
-9 -4 -10 -2 -17 4 -17 6 0 8 -7 5 -16 -4 -10 -2 -13 6 -8 8 5 9 2 5 -9 -3
-10 -2 -17 4 -17 6 0 7 -5 4 -10 -3 -6 -1 -10 5 -10 7 0 9 -7 6 -16 -4 -10 -2
-13 6 -8 8 5 9 2 5 -9 -3 -10 -2 -17 4 -17 6 0 7 -4 4 -10 -3 -5 -1 -10 5 -10
6 0 8 -4 5 -10 -3 -5 -1 -10 5 -10 6 0 8 -4 5 -10 -3 -5 -1 -10 6 -10 7 0 10
-3 6 -6 -3 -3 3 -14 14 -25 11 -11 17 -24 14 -29 -6 -10 26 -22 46 -18 7 2 20
10 29 18 14 14 14 14 6 0 -5 -8 10 6 33 33 24 26 46 45 51 42 4 -3 56 46 115
107 60 62 104 106 99 98 -5 -9 2 -4 15 10 13 14 20 18 16 10 -4 -10 -1 -9 8 2
8 10 17 15 20 11 4 -3 7 -1 7 5 0 8 19 12 50 12 29 0 50 -5 50 -11 0 -5 5 -7
11 -4 10 7 65 -44 61 -57 -1 -5 3 -8 9 -8 5 0 7 -4 4 -10 -3 -5 -1 -10 5 -10
6 0 8 -4 5 -10 -3 -5 -2 -10 3 -10 5 0 9 -18 8 -40 0 -22 -4 -40 -9 -40 -4 0
-5 -4 -2 -10 3 -5 1 -10 -4 -10 -6 0 -10 -4 -9 -9 2 -4 -6 -17 -17 -27 -12
-11 -14 -15 -5 -10 8 5 -29 -32 -83 -83 -54 -52 -95 -96 -92 -99 3 -3 -31 -43
-77 -89 -68 -68 -80 -85 -69 -95 11 -11 13 -10 7 2 -7 13 -6 13 6 0 7 -8 20
-16 28 -18 8 -2 20 -8 25 -15 6 -7 17 -13 25 -15 8 -2 20 -10 26 -17 6 -8 14
-12 17 -8 4 3 7 1 7 -6 0 -7 5 -9 10 -6 6 3 10 1 10 -5 0 -6 5 -8 10 -5 6 3
10 1 10 -5 0 -6 5 -8 10 -5 6 3 10 1 10 -5 0 -6 5 -8 10 -5 6 3 10 2 10 -4 0
-6 7 -8 15 -5 8 4 15 1 15 -6 0 -6 5 -8 10 -5 6 3 10 2 10 -4 0 -6 7 -8 15 -5
8 4 15 1 15 -5 0 -6 7 -8 15 -5 8 4 15 1 15 -5 0 -6 7 -8 15 -5 8 4 15 1 15
-5 0 -6 6 -8 14 -5 8 3 17 1 20 -4 3 -6 15 -8 26 -5 11 3 20 1 20 -4 0 -5 16
-9 36 -9 l37 0 -5 223 c-3 128 -1 226 4 229 5 3 6 19 3 35 -4 19 -3 29 5 29 7
0 9 8 5 19 -6 20 39 78 56 73 5 -1 9 2 9 8 0 5 6 7 14 4 8 -3 17 -1 21 5 8 14
85 14 85 0 0 -5 5 -7 11 -3 7 4 20 -4 31 -17 11 -13 16 -17 12 -9 -4 8 5 4 19
-9 29 -26 34 -36 15 -26 -7 4 -6 1 3 -7 9 -7 14 -19 12 -25 -3 -7 -1 -13 4
-13 4 0 8 -60 8 -132 0 -110 10 -350 16 -368 1 -3 1 -7 1 -10 0 -3 13 -5 29
-6 16 -1 29 3 29 9 0 5 9 7 20 4 11 -3 20 -1 20 5 0 6 7 8 15 4 8 -3 15 -1 15
5 0 6 7 9 15 5 8 -3 15 -1 15 5 0 6 7 9 15 5 8 -3 15 -1 15 4 0 5 7 6 17 3 12
-5 14 -3 8 7 -6 10 -4 12 8 7 10 -4 17 -2 17 4 0 6 7 8 16 5 10 -4 13 -2 8 6
-5 8 -2 9 9 5 10 -3 17 -2 17 4 0 6 5 7 10 4 6 -3 10 -1 10 5 0 6 5 8 10 5 6
-3 10 -1 10 5 0 7 7 9 16 6 10 -4 13 -2 8 6 -5 8 -2 9 10 5 11 -5 15 -3 10 5
-5 8 -2 9 10 5 9 -4 14 -3 11 2 -5 9 32 27 48 23 4 -1 7 2 7 8 0 5 12 16 28
24 15 8 21 15 13 16 -8 0 -12 3 -8 6 3 4 -2 14 -11 23 -12 11 -13 13 -2 7 8
-5 -6 10 -33 33 -26 24 -45 46 -42 51 3 5 -48 59 -112 121 -65 62 -109 107
-97 99 11 -8 7 -3 -10 13 -17 15 -26 27 -21 27 5 0 1 6 -10 13 -10 8 -15 19
-11 25 4 7 3 12 -2 12 -5 0 -9 14 -10 30 0 17 4 30 9 30 6 0 7 5 4 10 -3 6 -1
10 5 10 6 0 9 4 6 9 -3 4 9 24 27 43 17 19 25 25 17 13 -8 -11 -3 -8 13 7 15
16 27 25 27 21 0 -4 5 -2 12 5 15 15 88 16 88 1 0 -5 5 -7 11 -3 6 3 21 -4 33
-18 11 -13 17 -17 11 -8 -5 8 37 -33 94 -93 56 -59 106 -105 110 -103 4 3 40
-28 80 -68 69 -69 74 -73 91 -57 9 9 15 19 13 23 -2 4 5 16 17 28 11 11 20 23
20 28 0 20 12 42 21 37 5 -3 6 2 2 11 -4 12 -3 15 5 10 8 -4 10 -2 6 7 -3 8 2
21 10 30 8 8 12 17 9 21 -4 3 -1 6 5 6 6 0 9 7 5 17 -5 12 -3 14 7 8 10 -6 12
-4 7 8 -3 10 -2 17 3 17 5 0 7 7 4 15 -4 8 -1 15 5 15 6 0 8 7 5 15 -4 8 -1
15 5 15 6 0 8 7 5 15 -4 8 -1 15 5 15 6 0 8 7 5 15 -4 8 -1 15 6 15 7 0 9 8 5
20 -4 11 -2 20 4 20 6 0 8 7 5 15 -4 8 -1 15 5 15 19 0 12 19 -11 32 -21 12
-142 18 -380 18 -41 1 -68 5 -68 11 0 7 -12 8 -30 4 -20 -4 -30 -3 -30 5 0 6
-8 9 -18 5 -21 -6 -76 31 -67 46 4 5 2 9 -4 9 -6 0 -8 7 -5 15 4 8 2 15 -2 15
-5 0 -9 24 -10 54 0 33 4 52 10 49 5 -4 7 1 3 10 -3 10 -2 17 4 17 6 0 7 5 4
10 -3 6 -1 10 5 10 6 0 9 4 6 9 -3 4 4 17 15 27 25 22 35 23 340 30 l227 5 6
31 c4 19 2 34 -5 39 -6 4 -8 16 -4 28 4 13 2 21 -5 21 -7 0 -10 7 -6 15 3 8 1
15 -5 15 -6 0 -8 9 -4 21 5 16 4 19 -6 14 -9 -6 -11 -3 -6 8 4 10 2 17 -4 17
-6 0 -9 7 -5 15 3 8 1 15 -5 15 -6 0 -7 5 -4 10 3 6 1 10 -5 10 -7 0 -10 7 -6
15 3 8 1 15 -5 15 -6 0 -7 5 -4 10 3 6 1 10 -5 10 -6 0 -8 5 -5 10 3 6 1 10
-5 10 -6 0 -8 5 -5 10 3 6 1 10 -5 10 -6 0 -8 5 -5 10 3 6 1 10 -5 10 -6 0 -8
5 -5 10 3 6 1 10 -5 10 -6 0 -8 5 -5 10 3 6 1 10 -6 10 -7 0 -10 3 -6 6 3 3
-3 14 -14 25 -11 11 -17 25 -13 31 4 7 3 8 -4 4 -7 -4 -12 -3 -12 3 0 17 -34
17 -50 1 -13 -14 -14 -14 -6 0 6 8 -14 -11 -43 -43 -29 -31 -56 -55 -61 -52
-4 3 -54 -43 -111 -102 -56 -60 -96 -99 -89 -88 7 11 -4 2 -24 -20 -21 -22
-35 -33 -31 -25 4 10 2 9 -8 -2 -16 -20 -67 -25 -67 -7 0 6 -7 9 -15 5 -8 -3
-15 -1 -15 5 0 6 -4 7 -10 4 -5 -3 -10 -1 -10 5 0 6 -5 8 -10 5 -17 -11 -83
62 -77 85 3 11 1 20 -4 20 -5 0 -9 9 -9 20 0 11 5 20 11 20 6 0 8 9 4 20 -4
14 2 28 22 47 15 14 21 23 13 19 -8 -4 -1 5 15 21 17 15 24 24 15 18 -8 -5 54
57 138 139 84 82 150 151 147 154 -2 3 0 11 7 19 8 11 8 17 -2 26 -10 10 -11
9 -6 -3 4 -8 -2 -4 -14 10 -12 14 -19 18 -15 10 6 -13 5 -13 -7 0 -7 8 -20 16
-28 18 -8 2 -20 10 -26 17 -6 8 -14 12 -17 8 -4 -3 -7 -1 -7 6 0 7 -4 9 -10 6
-5 -3 -10 -2 -10 4 0 6 -7 7 -17 4 -11 -4 -14 -3 -9 5 5 8 2 10 -8 6 -9 -3
-16 -1 -16 6 0 6 -4 8 -10 5 -5 -3 -10 -2 -10 4 0 6 -7 7 -17 4 -11 -4 -14 -3
-9 5 5 8 2 10 -8 6 -9 -3 -16 -1 -16 5 0 6 -7 8 -15 5 -8 -4 -15 -1 -15 6 0 6
-4 8 -10 5 -5 -3 -10 -1 -10 5 0 7 -7 10 -15 6 -8 -3 -15 -1 -15 5 0 6 -9 8
-20 4 -11 -4 -20 -2 -20 4 0 6 -7 8 -15 5 -8 -4 -15 -1 -15 6 0 7 -8 9 -21 5
-12 -4 -24 -2 -29 4 -3 7 -13 9 -22 6 -12 -5 -16 -43 -22 -225 -4 -120 -4
-235 0 -254 4 -23 2 -36 -5 -36 -6 0 -8 -7 -5 -15 4 -8 1 -15 -6 -15 -6 0 -9
-4 -6 -9 3 -5 -12 -25 -35 -45 -28 -26 -46 -35 -60 -31 -11 4 -19 2 -19 -4 0
-6 -11 -11 -25 -11 -14 0 -25 5 -25 11 0 6 -7 9 -15 5 -8 -3 -15 -1 -15 5 0 6
-4 7 -10 4 -5 -3 -10 -1 -10 5 0 6 -4 9 -9 6 -4 -3 -19 6 -32 21 -13 14 -17
23 -9 19 9 -5 8 -2 -2 7 -10 8 -15 17 -11 20 3 4 1 7 -6 7 -7 0 -9 5 -6 10 3
6 3 16 -2 23 -4 6 -9 102 -10 212 -2 281 -3 290 -30 291 -13 1 -23 -3 -23 -8z
m870 -231 c0 -1 -48 -50 -107 -107 l-108 -105 105 108 c97 99 110 112 110 104z
m-1065 -237 c21 -22 37 -40 34 -40 -3 0 -23 18 -44 40 -21 22 -37 40 -34 40 3
0 23 -18 44 -40z m-300 -170 c49 -49 87 -90 85 -90 -3 0 -46 41 -95 90 -49 50
-87 90 -85 90 3 0 46 -40 95 -90z m1485 57 c0 -1 -26 -27 -57 -57 l-58 -55 55
58 c50 53 60 62 60 54z m-730 -387 c0 -5 7 -7 15 -4 8 4 15 1 15 -6 0 -6 4 -9
9 -6 5 3 17 -2 28 -12 10 -9 14 -15 8 -12 -6 3 0 -5 13 -16 14 -12 21 -27 18
-33 -4 -6 -4 -11 1 -11 4 0 8 -20 9 -45 0 -25 -3 -45 -7 -45 -5 0 -6 -7 -3
-15 4 -8 -13 -33 -41 -62 -26 -26 -44 -41 -40 -33 6 13 5 13 -7 0 -14 -16 -98
-24 -98 -9 0 4 -6 6 -14 3 -16 -6 -89 54 -80 67 3 5 0 9 -6 9 -6 0 -8 5 -5 10
3 6 2 10 -4 10 -6 0 -8 7 -5 15 4 8 1 15 -5 15 -6 0 -11 14 -11 30 0 17 5 30
11 30 6 0 9 7 5 15 -3 8 0 15 6 15 6 0 9 2 6 5 -8 8 71 87 81 80 5 -3 12 -1
16 5 8 13 85 13 85 0z m-140 -23 c0 -2 -10 -12 -22 -23 l-23 -19 19 23 c18 21
26 27 26 19z m790 -584 l75 -78 -77 75 c-43 41 -78 76 -78 77 0 8 11 -3 80
-74z m-1370 14 c0 -1 -26 -27 -57 -57 l-58 -55 55 58 c50 53 60 62 60 54z
m280 -190 c0 -1 -28 -29 -62 -62 l-63 -60 60 63 c55 58 65 67 65 59z m895 -97
c38 -38 67 -70 64 -70 -2 0 -36 32 -74 70 -38 39 -67 70 -64 70 2 0 36 -31 74
-70z"/>
<path d="M3275 1830 c10 -11 20 -20 23 -20 3 0 -3 9 -13 20 -10 11 -20 20 -23
20 -3 0 3 -9 13 -20z"/>
<path d="M4248 800 c-9 -10 -14 -21 -10 -24 3 -3 -1 -6 -8 -6 -7 0 -10 -3 -7
-7 4 -3 -1 -12 -11 -20 -11 -10 -12 -12 -2 -8 8 4 6 -1 -4 -9 -11 -9 -16 -16
-11 -16 5 0 0 -7 -11 -16 -10 -8 -12 -13 -4 -9 8 4 6 -1 -4 -9 -11 -9 -16 -16
-10 -16 5 0 -2 -10 -16 -21 -14 -11 -18 -17 -10 -13 29 15 -43 -69 -162 -187
-66 -66 -117 -114 -113 -107 4 7 -3 1 -14 -13 -24 -31 -78 -69 -66 -48 4 8 -3
3 -15 -11 -12 -14 -19 -18 -15 -10 4 8 -3 4 -15 -10 -12 -14 -19 -18 -15 -10
4 8 -1 6 -9 -4 -9 -11 -16 -17 -16 -13 0 4 -9 -2 -20 -13 -12 -12 -25 -18 -30
-15 -6 4 -10 1 -10 -5 0 -6 -4 -8 -10 -5 -5 3 -10 1 -10 -5 0 -6 -4 -8 -10 -5
-5 3 -10 1 -10 -5 0 -6 -4 -8 -10 -5 -5 3 -10 1 -10 -5 0 -6 -4 -8 -10 -5 -5
3 -10 1 -10 -5 0 -6 -4 -8 -10 -5 -5 3 -10 1 -10 -5 0 -7 -7 -9 -16 -6 -10 4
-13 2 -8 -6 5 -8 2 -9 -9 -5 -10 3 -17 2 -17 -4 0 -6 -4 -7 -10 -4 -5 3 -10 1
-10 -5 0 -7 -7 -10 -15 -6 -8 3 -15 1 -15 -5 0 -6 -7 -9 -15 -5 -8 3 -15 1
-15 -4 0 -5 -7 -6 -17 -3 -12 5 -14 3 -8 -7 6 -10 4 -12 -8 -7 -10 4 -17 2
-17 -4 0 -6 -7 -9 -15 -5 -8 3 -15 1 -15 -5 0 -6 -9 -8 -20 -4 -12 4 -20 2
-20 -5 0 -7 -7 -10 -15 -6 -8 3 -15 1 -15 -5 0 -7 -10 -9 -25 -5 -15 4 -25 2
-25 -4 0 -7 -15 -9 -42 -5 -24 4 -54 2 -68 -4 -17 -6 840 -10 2628 -10 1773
-1 2651 2 2647 9 -3 6 -17 7 -31 4 -14 -4 -24 -2 -24 5 0 6 -7 8 -15 5 -8 -4
-15 -1 -15 5 0 6 -7 8 -17 4 -11 -4 -14 -3 -9 5 4 8 2 10 -7 6 -8 -3 -22 2
-31 11 -9 9 -16 14 -16 10 0 -3 -13 1 -30 10 -16 9 -30 20 -30 26 0 6 -4 8 -9
4 -6 -3 -14 3 -20 12 -6 10 -11 14 -11 8 0 -5 -10 1 -23 15 -12 14 -18 19 -13
10 6 -8 -11 5 -37 29 -25 24 -44 48 -41 52 2 4 -1 11 -7 15 -8 5 -10 2 -5 -7
4 -8 -1 -3 -12 11 -11 13 -19 27 -16 31 2 4 -3 10 -12 13 -8 3 -13 10 -10 15
3 5 -1 12 -10 15 -9 4 -14 13 -10 22 3 8 2 13 -3 10 -11 -7 -23 22 -14 36 4 7
1 8 -7 3 -10 -6 -12 -4 -7 8 4 10 2 17 -4 17 -6 0 -9 7 -5 15 3 8 1 15 -5 15
-5 0 -7 11 -3 25 3 14 2 25 -4 25 -10 0 -13 47 -13 218 l0 102 -1792 -1
c-1724 -1 -1793 -1 -1809 -19z m-198 -303 c0 -1 -30 -32 -67 -67 l-68 -65 65
68 c60 62 70 72 70 64z"/>
</g>
</svg>
